<?xml version="1.0" encoding="UTF-8" standalone="no"?>
<!-- Created with Inkscape (http://www.inkscape.org/) -->

<svg
   xmlns:dc="http://purl.org/dc/elements/1.1/"
   xmlns:cc="http://creativecommons.org/ns#"
   xmlns:rdf="http://www.w3.org/1999/02/22-rdf-syntax-ns#"
   xmlns:svg="http://www.w3.org/2000/svg"
   xmlns="http://www.w3.org/2000/svg"
   xmlns:xlink="http://www.w3.org/1999/xlink"
   xmlns:sodipodi="http://sodipodi.sourceforge.net/DTD/sodipodi-0.dtd"
   xmlns:inkscape="http://www.inkscape.org/namespaces/inkscape"
   width="500"
   height="500"
   id="svg2"
   version="1.1"
   inkscape:version="0.48.4 r9939"
   sodipodi:docname="gear-dark.svg"
   inkscape:export-filename="C:\dev\projects\slim-libs\glass-libs\icons\glass\default\gear-dark-16.png"
   inkscape:export-xdpi="2.8800001"
   inkscape:export-ydpi="2.8800001">
  <defs
     id="defs4">
    <linearGradient
       id="linearGradient4218">
      <stop
         style="stop-color:#000000;stop-opacity:0.44247788;"
         offset="0"
         id="stop4220" />
      <stop
         id="stop4228"
         offset="0.47222221"
         style="stop-color:#000000;stop-opacity:0.24778761;" />
      <stop
         style="stop-color:#000000;stop-opacity:0;"
         offset="1"
         id="stop4222" />
    </linearGradient>
    <linearGradient
       id="linearGradient4208">
      <stop
         id="stop4210"
         offset="0"
         style="stop-color:#e6e6e6;stop-opacity:1" />
      <stop
         style="stop-color:#f2f2f2;stop-opacity:1"
         offset="0.5"
         id="stop4212" />
      <stop
         id="stop4214"
         offset="1"
         style="stop-color:#e6e6e6;stop-opacity:1" />
    </linearGradient>
    <linearGradient
       id="linearGradient4090">
      <stop
         style="stop-color:#1e1e1e;stop-opacity:1;"
         offset="0"
         id="stop4092" />
      <stop
         id="stop4098"
         offset="0.5"
         style="stop-color:#818181;stop-opacity:1;" />
      <stop
         style="stop-color:#1e1e1e;stop-opacity:1;"
         offset="1"
         id="stop4094" />
    </linearGradient>
    <linearGradient
       id="linearGradient3170">
      <stop
         style="stop-color:#ffff00;stop-opacity:1"
         offset="0"
         id="stop3172" />
      <stop
         style="stop-color:#d40000;stop-opacity:1"
         offset="1"
         id="stop3174" />
    </linearGradient>
    <linearGradient
       inkscape:collect="always"
       xlink:href="#linearGradient4090-8"
       id="linearGradient4096-8"
       x1="274.16199"
       y1="197.02637"
       x2="489.21985"
       y2="408.06284"
       gradientUnits="userSpaceOnUse" />
    <linearGradient
       id="linearGradient4090-8">
      <stop
         style="stop-color:#cccccc;stop-opacity:1"
         offset="0"
         id="stop4092-2" />
      <stop
         id="stop4098-4"
         offset="0.5"
         style="stop-color:#ffffff;stop-opacity:1" />
      <stop
         style="stop-color:#cccccc;stop-opacity:1"
         offset="1"
         id="stop4094-5" />
    </linearGradient>
    <linearGradient
       gradientTransform="translate(142.31441,373.31041)"
       y2="408.06284"
       x2="489.21985"
       y1="197.02637"
       x1="274.16199"
       gradientUnits="userSpaceOnUse"
       id="linearGradient4116-1"
       xlink:href="#linearGradient4090-8-7"
       inkscape:collect="always" />
    <linearGradient
       id="linearGradient4090-8-7">
      <stop
         style="stop-color:#cccccc;stop-opacity:1"
         offset="0"
         id="stop4092-2-1" />
      <stop
         id="stop4098-4-1"
         offset="0.5"
         style="stop-color:#ffffff;stop-opacity:1" />
      <stop
         style="stop-color:#cccccc;stop-opacity:1"
         offset="1"
         id="stop4094-5-5" />
    </linearGradient>
    <linearGradient
       inkscape:collect="always"
       xlink:href="#linearGradient4208"
       id="linearGradient4206"
       x1="299.75"
       y1="303.34375"
       x2="464.4375"
       y2="303.34375"
       gradientUnits="userSpaceOnUse"
       gradientTransform="matrix(0.47206122,-1.3711213,1.3711213,0.47206122,-346.84322,1165.3925)" />
    <radialGradient
       inkscape:collect="always"
       xlink:href="#linearGradient4218"
       id="radialGradient4226"
       cx="474.78833"
       cy="475.92206"
       fx="474.78833"
       fy="475.92206"
       r="183.15825"
       gradientTransform="matrix(1,0,0,0.13145977,0,413.35745)"
       gradientUnits="userSpaceOnUse" />
    <linearGradient
       inkscape:collect="always"
       xlink:href="#linearGradient4090"
       id="linearGradient4239"
       gradientUnits="userSpaceOnUse"
       gradientTransform="matrix(1.3624624,-0.49649941,0.49649941,1.3624624,-421.74885,561.1073)"
       x1="274.16199"
       y1="197.02637"
       x2="489.21985"
       y2="408.06284" />
    <linearGradient
       inkscape:collect="always"
       xlink:href="#linearGradient4208"
       id="linearGradient4241"
       gradientUnits="userSpaceOnUse"
       gradientTransform="matrix(0.47206122,-1.3711213,1.3711213,0.47206122,-346.84322,1165.3925)"
       x1="299.75"
       y1="303.34375"
       x2="464.4375"
       y2="303.34375" />
  </defs>
  <sodipodi:namedview
     id="base"
     pagecolor="#ffffff"
     bordercolor="#666666"
     borderopacity="1.0"
     inkscape:pageopacity="0.0"
     inkscape:pageshadow="2"
     inkscape:zoom="0.88457031"
     inkscape:cx="139.74273"
     inkscape:cy="214.18474"
     inkscape:document-units="px"
     inkscape:current-layer="layer1"
     showgrid="false"
     inkscape:window-width="1440"
     inkscape:window-height="844"
     inkscape:window-x="-4"
     inkscape:window-y="-4"
     inkscape:window-maximized="1"
     inkscape:snap-global="true"
     inkscape:snap-center="true"
     inkscape:snap-grids="true"
     inkscape:object-nodes="true" />
  <metadata
     id="metadata7">
    <rdf:RDF>
      <cc:Work
         rdf:about="">
        <dc:format>image/svg+xml</dc:format>
        <dc:type
           rdf:resource="http://purl.org/dc/dcmitype/StillImage" />
        <dc:title></dc:title>
      </cc:Work>
    </rdf:RDF>
  </metadata>
  <g
     inkscape:groupmode="layer"
     id="layer2"
     inkscape:label="shadow"
     style="display:inline"
     sodipodi:insensitive="true">
    <path
       sodipodi:type="arc"
       style="fill:url(#radialGradient4226);fill-opacity:1;fill-rule:nonzero;stroke:none;display:inline"
       id="path4216"
       sodipodi:cx="474.78833"
       sodipodi:cy="475.92206"
       sodipodi:rx="183.15825"
       sodipodi:ry="24.07794"
       d="m 657.94658,475.92206 a 183.15825,24.07794 0 1 1 -366.3165,0 183.15825,24.07794 0 1 1 366.3165,0 z"
       transform="matrix(1.3835857,0,0,1.0189293,-407.15065,-2.1652)" />
  </g>
  <g
     inkscape:label="Layer 1"
     inkscape:groupmode="layer"
     id="layer1"
     transform="translate(0,-552.36218)"
     style="display:inline;opacity:0.98">
    <path
       sodipodi:type="arc"
       style="opacity:0.98000003999999996;fill:#000000;fill-opacity:1;stroke:none;stroke-width:15;stroke-linecap:round;stroke-linejoin:miter;stroke-miterlimit:4;stroke-opacity:1;stroke-dasharray:none"
       id="path3806"
       sodipodi:cx="248.70833"
       sodipodi:cy="252.42216"
       sodipodi:rx="67.829544"
       sodipodi:ry="65.568558"
       d="m 316.53787,252.42216 a 67.829544,65.568558 0 1 1 -135.65909,0 67.829544,65.568558 0 1 1 135.65909,0 z"
       transform="translate(0,552.36218)" />
    <path
       style="opacity:0.98000003999999996;fill:#1a1a1a;fill-opacity:1;fill-rule:nonzero;stroke:#ffffff;stroke-width:15.77501297000000100;stroke-linecap:round;stroke-linejoin:round;stroke-miterlimit:4;stroke-opacity:1;stroke-dasharray:none"
       d="m 194.97344,564.84124 -72.39098,29.53848 17.67234,48.26468 -48.852145,48.34243 -48.087843,-18.20458 -30.296202,72.04147 46.667915,21.65376 -0.378303,68.67803 -46.901449,21.16244 29.538483,72.39099 48.310343,-17.69086 48.278221,48.82501 -18.15889,48.06921 72.06002,30.342 21.65374,-46.66795 68.67803,0.37829 21.14391,46.85576 72.39099,-29.5385 -17.67232,-48.26464 48.80647,-48.32389 48.08782,18.20456 30.29622,-72.04146 -46.62225,-21.67227 0.37831,-68.67806 46.85576,-21.14391 -29.53847,-72.39098 -48.26468,17.67234 -48.3239,-48.80647 18.18604,-48.13351 -72.08717,-30.27767 -21.60805,46.64936 -68.72372,-0.35974 z m 25.8694,166.51986 c 38.93129,-15.79976 83.26924,2.93922 99.06898,41.8705 15.79977,38.93129 -2.93921,83.26923 -41.87048,99.06901 -38.93128,15.79973 -83.26924,-2.93922 -99.06898,-41.87053 -15.79977,-38.93127 2.93921,-83.2692 41.87048,-99.06898 z"
       id="path3208-7"
       inkscape:connector-curvature="0"
       sodipodi:nodetypes="cccccccccccccccccccccccccccccccccsssss" />
    <path
       style="fill:#cccccc;fill-opacity:1;fill-rule:nonzero;stroke:none"
       d="m 125.1744,764.00138 c -20.89153,68.62754 17.81071,141.20562 86.43823,162.09716 68.62752,20.89153 141.20562,-17.81069 162.09716,-86.4382 C 394.60132,771.03279 355.8991,698.45472 287.27158,677.56316 218.64403,656.67163 146.06595,695.37385 125.1744,764.00138 z m 76.02259,23.14275 c 8.11374,-26.65322 36.27865,-41.67211 62.93184,-33.55836 26.65321,8.11371 41.6721,36.27862 33.55837,62.93182 -8.11374,26.65322 -36.29301,41.71925 -62.94622,33.60554 -26.65316,-8.11376 -41.65773,-36.32581 -33.54399,-62.979 z"
       id="path3237"
       inkscape:connector-curvature="0" />
  </g>
  <g
     inkscape:groupmode="layer"
     id="layer3"
     inkscape:label="holes"
     style="display:inline"
     sodipodi:insensitive="true">
    <path
       sodipodi:type="arc"
       style="fill:#333333;fill-opacity:1;fill-rule:nonzero;stroke:#333333;stroke-width:9.50865173;stroke-miterlimit:4;stroke-opacity:1;stroke-dasharray:none;display:inline"
       id="path3279"
       sodipodi:cx="341.32495"
       sodipodi:cy="344.11255"
       sodipodi:rx="8.0035973"
       sodipodi:ry="8.0035973"
       d="m 349.32855,344.11255 a 8.0035973,8.0035973 0 1 1 -16.0072,0 8.0035973,8.0035973 0 1 1 16.0072,0 z"
       transform="matrix(1.4530635,0.61412242,-0.61412242,1.4530635,-119.47421,-425.96139)" />
    <path
       transform="matrix(1.4530635,0.61412242,-0.61412242,1.4530635,-69.400144,-544.44071)"
       sodipodi:type="arc"
       style="fill:#333333;fill-opacity:1;fill-rule:nonzero;stroke:#333333;stroke-width:9.50865173;stroke-miterlimit:4;stroke-opacity:1;stroke-dasharray:none;display:inline"
       id="path3279-0"
       sodipodi:cx="341.32495"
       sodipodi:cy="344.11255"
       sodipodi:rx="8.0035973"
       sodipodi:ry="8.0035973"
       d="m 349.32855,344.11255 a 8.0035973,8.0035973 0 1 1 -16.0072,0 8.0035973,8.0035973 0 1 1 16.0072,0 z" />
    <path
       transform="matrix(1.4530635,0.61412242,-0.61412242,1.4530635,49.079143,-494.36665)"
       sodipodi:type="arc"
       style="fill:#333333;fill-opacity:1;fill-rule:nonzero;stroke:#333333;stroke-width:9.50865173;stroke-miterlimit:4;stroke-opacity:1;stroke-dasharray:none;display:inline"
       id="path3279-9"
       sodipodi:cx="341.32495"
       sodipodi:cy="344.11255"
       sodipodi:rx="8.0035973"
       sodipodi:ry="8.0035973"
       d="m 349.32855,344.11255 a 8.0035973,8.0035973 0 1 1 -16.0072,0 8.0035973,8.0035973 0 1 1 16.0072,0 z" />
    <path
       transform="matrix(1.4530635,0.61412242,-0.61412242,1.4530635,-0.99491228,-375.88735)"
       sodipodi:type="arc"
       style="fill:#333333;fill-opacity:1;fill-rule:nonzero;stroke:#333333;stroke-width:9.50865173;stroke-miterlimit:4;stroke-opacity:1;stroke-dasharray:none;display:inline"
       id="path3279-4"
       sodipodi:cx="341.32495"
       sodipodi:cy="344.11255"
       sodipodi:rx="8.0035973"
       sodipodi:ry="8.0035973"
       d="m 349.32855,344.11255 a 8.0035973,8.0035973 0 1 1 -16.0072,0 8.0035973,8.0035973 0 1 1 16.0072,0 z" />
  </g>
</svg>
